<?xml version="1.0" encoding="UTF-8"?>
<svg id="Layer_1" xmlns="http://www.w3.org/2000/svg" xmlns:xlink="http://www.w3.org/1999/xlink" viewBox="0 0 128.5 146.7">
  <defs>
    <style>
      .cls-1, .cls-2 {
        fill: none;
      }

      .cls-3 {
        fill: url(#linear-gradient-8);
      }

      .cls-4 {
        fill: url(#linear-gradient-7);
      }

      .cls-5 {
        fill: url(#linear-gradient-5);
      }

      .cls-6 {
        fill: url(#linear-gradient-6);
      }

      .cls-7 {
        fill: url(#linear-gradient-9);
      }

      .cls-8 {
        fill: url(#linear-gradient-4);
      }

      .cls-9 {
        fill: url(#linear-gradient-3);
      }

      .cls-10 {
        fill: url(#linear-gradient-2);
      }

      .cls-11 {
        fill: url(#linear-gradient);
      }

      .cls-12 {
        fill: #00a9e3;
      }

      .cls-13, .cls-2, .cls-14 {
        isolation: isolate;
      }

      .cls-2 {
        stroke: #1c75bc;
        stroke-miterlimit: 10;
        stroke-width: .8px;
      }

      .cls-2, .cls-14 {
        font-family: MyriadPro-Bold, 'Myriad Pro';
        font-size: 25.8px;
        font-weight: 700;
      }

      .cls-15, .cls-14 {
        fill: #fff;
      }

      .cls-16 {
        fill: #ef4023;
      }

      .cls-17 {
        fill: url(#linear-gradient-10);
      }

      .cls-18 {
        fill: url(#linear-gradient-11);
      }

      .cls-19 {
        fill: url(#linear-gradient-12);
      }

      .cls-20 {
        fill: url(#linear-gradient-13);
      }

      .cls-21 {
        fill: url(#linear-gradient-14);
      }

      .cls-22 {
        letter-spacing: -.08em;
      }

      .cls-23 {
        letter-spacing: -.02em;
      }

      .cls-24 {
        letter-spacing: -.04em;
      }

      .cls-25 {
        fill: #1c75bc;
      }

      .cls-26 {
        clip-path: url(#clippath);
      }

      .cls-27 {
        letter-spacing: 0em;
      }
    </style>
    <linearGradient id="linear-gradient" x1="72.83" y1="53.72" x2="95.33" y2="22.92" gradientTransform="translate(0 148.2) scale(1 -1)" gradientUnits="userSpaceOnUse">
      <stop offset="0" stop-color="#84d5f7" stop-opacity="0"/>
      <stop offset="1" stop-color="#84d5f7"/>
    </linearGradient>
    <linearGradient id="linear-gradient-2" x1="58.65" y1="52.02" x2="46.65" y2="88.12" gradientTransform="translate(0 148.2) scale(1 -1)" gradientUnits="userSpaceOnUse">
      <stop offset="0" stop-color="#7f9acf" stop-opacity="0"/>
      <stop offset="1" stop-color="#5bb6a9"/>
    </linearGradient>
    <linearGradient id="linear-gradient-3" x1="62.95" y1="53.18" x2="50.85" y2="89.28" gradientTransform="translate(0 148.2) scale(1 -1)" gradientUnits="userSpaceOnUse">
      <stop offset="0" stop-color="#7f9acf" stop-opacity="0"/>
      <stop offset="1" stop-color="#5bb6a9"/>
    </linearGradient>
    <linearGradient id="linear-gradient-4" x1="66.07" y1="54.43" x2="54.07" y2="90.43" gradientTransform="translate(0 148.2) scale(1 -1)" gradientUnits="userSpaceOnUse">
      <stop offset="0" stop-color="#7f9acf" stop-opacity="0"/>
      <stop offset="1" stop-color="#5bb6a9"/>
    </linearGradient>
    <linearGradient id="linear-gradient-5" x1="70.48" y1="55.53" x2="58.48" y2="91.73" gradientTransform="translate(0 148.2) scale(1 -1)" gradientUnits="userSpaceOnUse">
      <stop offset="0" stop-color="#7f9acf" stop-opacity="0"/>
      <stop offset="1" stop-color="#5bb6a9"/>
    </linearGradient>
    <linearGradient id="linear-gradient-6" x1="76.25" y1="56.52" x2="64.05" y2="93.32" gradientTransform="translate(0 148.2) scale(1 -1)" gradientUnits="userSpaceOnUse">
      <stop offset="0" stop-color="#7f9acf" stop-opacity="0"/>
      <stop offset="1" stop-color="#5bb6a9"/>
    </linearGradient>
    <linearGradient id="linear-gradient-7" x1="76.3" y1="56.6" x2="64" y2="93.4" gradientTransform="translate(0 148.2) scale(1 -1)" gradientUnits="userSpaceOnUse">
      <stop offset="0" stop-color="#7f9acf" stop-opacity="0"/>
      <stop offset="1" stop-color="#5bb6a9"/>
    </linearGradient>
    <linearGradient id="linear-gradient-8" x1="46.64" y1="47.48" x2="34.44" y2="84.18" gradientTransform="translate(0 148.2) scale(1 -1)" gradientUnits="userSpaceOnUse">
      <stop offset="0" stop-color="#7f9acf" stop-opacity="0"/>
      <stop offset="1" stop-color="#5bb6a9"/>
    </linearGradient>
    <linearGradient id="linear-gradient-9" x1="49.92" y1="48.51" x2="37.72" y2="85.31" gradientTransform="translate(0 148.2) scale(1 -1)" gradientUnits="userSpaceOnUse">
      <stop offset="0" stop-color="#7f9acf" stop-opacity="0"/>
      <stop offset="1" stop-color="#5bb6a9"/>
    </linearGradient>
    <linearGradient id="linear-gradient-10" x1="53" y1="49.7" x2="40.8" y2="86.3" gradientTransform="translate(0 148.2) scale(1 -1)" gradientUnits="userSpaceOnUse">
      <stop offset="0" stop-color="#7f9acf" stop-opacity="0"/>
      <stop offset="1" stop-color="#5bb6a9"/>
    </linearGradient>
    <linearGradient id="linear-gradient-11" x1="82.33" y1="59.04" x2="70.23" y2="95.44" gradientTransform="translate(0 148.2) scale(1 -1)" gradientUnits="userSpaceOnUse">
      <stop offset="0" stop-color="#7f9acf" stop-opacity="0"/>
      <stop offset="1" stop-color="#5bb6a9"/>
    </linearGradient>
    <linearGradient id="linear-gradient-12" x1="81.25" y1="58.92" x2="69.15" y2="95.12" gradientTransform="translate(0 148.2) scale(1 -1)" gradientUnits="userSpaceOnUse">
      <stop offset="0" stop-color="#7f9acf" stop-opacity="0"/>
      <stop offset="1" stop-color="#5bb6a9"/>
    </linearGradient>
    <linearGradient id="linear-gradient-13" x1="59.73" y1="52.18" x2="47.73" y2="88.38" gradientTransform="translate(0 148.2) scale(1 -1)" gradientUnits="userSpaceOnUse">
      <stop offset="0" stop-color="#7f9acf" stop-opacity="0"/>
      <stop offset="1" stop-color="#5bb6a9"/>
    </linearGradient>
    <linearGradient id="linear-gradient-14" x1="67.15" y1="48.43" x2="54.55" y2="69.93" gradientTransform="translate(0 148.2) scale(1 -1)" gradientUnits="userSpaceOnUse">
      <stop offset="0" stop-color="#84d5f7" stop-opacity="0"/>
      <stop offset="1" stop-color="#84d5f7"/>
    </linearGradient>
    <clipPath id="clippath">
      <polygon class="cls-1" points="127.4 110.8 63.7 146.7 0 110.8 0 36.2 63.7 0 127.4 36.2 127.4 110.8"/>
    </clipPath>
  </defs>
  <g id="Layer_1-2" data-name="Layer_1">
    <polygon id="Color" class="cls-25" points="127.4 110.8 63.7 146.7 0 110.8 0 36.2 63.7 0 127.4 36.2 127.4 110.8"/>
    <path id="Color-2" class="cls-11" d="M32.3,129l31.5,17.7,63.7-35.8v-31.6s-28.3-11.3-48.3,9.3c0,0-11.3,6.7-25.6,21-14.3,14.3-21.2,19.5-21.2,19.5l-.1-.1Z"/>
    <g>
      <path class="cls-10" d="M41.5,42.1c.2-.4.3-.8.3-.8,0,0-.9.1-1.3.3-.4.2-.7.2-.8.4,0,.2.5.1.5.4l-.7.6s.2.5-.1.7c0,0,.7-.2,1,0l.3.2s.8-.3,1.3-.6c.4-.4.6-.7.6-.8s-1.1.1-.9-.3l-.2-.1Z"/>
      <path class="cls-9" d="M48.1,44.9c0-.3-.4-1-.4-1l-.9-.4s.3-.5,0-.6h-.9s.2-.5-.2-.4c-.4.1-1.4.8-1.4.8-.1.2,0,.6,0,.6,0,0-.2.6-.4.8-.2.2-.5.5-.3.6.3.1.5-.1.6-.1s.7-.8.7-.8c0,0,1.2,0,1.3.2.1.2.2,1.2.2,1.2,0,0-.6.5-.6.7s0,.8.5,1,1.1.6,1.2.5-.5-.3-.3-.6.8,0,1-.2c.2-.3-.5-.8-.4-1s.6.7,1.3.2c.7-.5-1-1.1-1-1.4v-.1Z"/>
      <path class="cls-8" d="M49.4,41c.3-.2,1.3-.5,1.3-.5h-1.4c-.4,0-.9-.2-1,0s-.4.5-.4.5h-.8c-.2,0-.2.3-.3.5-.1.2-.3.7-.3.7l1.9-.3s.8-.5,1-.7v-.2Z"/>
      <path class="cls-5" d="M57.1,44.1l.3-.5s.5.2.8.1-1-.8-1-1.1-.2-.2-.5-.4-1-.7-1.1-1.1c-.1-.4-1.5-1-1.5-1-.2,0-1.1.2-1.4.4s-.6.2-.8.2-.9,0-1,.2c-.1.3-.5.6-.5.6,0,0-1,0-1,.3,0,.2,1.4.5,1.5.7,0,.2.4.5.4.5v.8c.1,0,1.5.8,1.4,1.1,0,.3-1.1.5-1.1.9s1.2,2.2,1.6,2.4c.4.3,1.9.8,2,.6s0-1,0-1v-.4l.5-.4-.3-.7h.6l.5-.5h.4l.3-.7s1.5-.5,1.5-.7-1.4-.2-1.4-.2l-.2-.1Z"/>
      <path class="cls-6" d="M59.4,39.8c-.4-.2-1.5-.2-1.5-.2,0,.3.8.6,1.3.7.4.2,1.2.3,1.2.3,0,0-.6-.7-.9-.9l-.1.1Z"/>
      <path class="cls-4" d="M61.8,45.2c-.6,0-.6.2-1.1.3-.5,0-1.2-.2-1.2-.2-.1.2,0,.7.8.9s1.7,0,1.9-.4.1-.7-.5-.7l.1.1Z"/>
      <path class="cls-3" d="M37.5,70.1c-.1-.2-.5-.8-.5-.8l-2.5-.8-.9.2c-.1.3,0,.1.5.2s1.5.7,1.8.8c.3,0,.6.1.8.4s.4.7.7,1,1.5.2,1.5.2l.3-.4s-1.6-.5-1.7-.7v-.1Z"/>
      <path class="cls-7" d="M39.7,71.2s.6.6.4.7-1.1,0-1.1,0v.2c.1,0,.8.3,1.2.3s1.4-.4,1.4-.4l1,.3-1-.9-1.8-.3-.1.1Z"/>
      <path class="cls-17" d="M44,72.2c-.3,0-.5.3-.5.3,0,.2.6.3.9.3s.7-.5.7-.5c0,0-.8-.1-1.2,0l.1-.1Z"/>
      <path class="cls-18" d="M71,49.6v-.3s-.4.5-.5.3-.3-.4-.3-.4c0,0-1.5-.6-1.7-.8s-.3-.3-.5-.5-.3-.6-.3-.6l-.3.4-.3-.5h-.4s-.1.4,0,.7c.2.3,1.2.6,1.2.6,0,0,.4.6.5.6.8-.2.8.4.8.4,0,0,.2.7.2.9,0,0,.5,0,.5.2s.4.6.4.6c0,0,.3-.5.5-.6.2-.2.5-.2.5-.2,0,0-.4-.4-.4-.7l.1-.1Z"/>
      <path class="cls-19" d="M68.5,49.6c0-.3-.3-.5-.5-.6s-.4.1-.4.1c0,0,.2.4-.1.5s-.3-.2-.3.1.6.1.5.4c0,.3,0,.7.3.7s.5,0,.7-.2c.3-.2.4-.4.2-.6s-.5-.3-.5-.5l.1.1Z"/>
      <path class="cls-20" d="M82.2,45.9c-7.9-7.6-18.5-11.7-29.7-11.7s-21.7,4.2-29.7,11.7c-7.9,7.6-12.3,17.6-12.3,28.3s4.4,20.8,12.3,28.3c7.9,7.6,18.5,11.7,29.7,11.7s21.7-4.2,29.7-11.7c7.9-7.6,12.3-17.6,12.3-28.3s-4.4-20.8-12.3-28.3ZM84.8,56.6h-.9s-.2-.6-.5-.4-.3.9-.3.9l.7,1.2-.6-.2h-.4c0,.1-.2-.5-.6-.5s-.9.3-.9.3c0,0,0-.5-.2-.5h-.3s0-1-.3-1.1-.7-.7-.9-.7-.4,0-.4.3v.5s-.4.2-.7.4c-.4.2-.6.5-.9.5s-.4.1-.6.3c-.2.2-.2.9-.2.9,0,0-.7.3-1,.3s-.6-.2-.5-.5.9-.6.9-.6l.3-1s-.8-1-.7-1.3c.1-.4.3-.7.3-.7l-.4-.8.2-.6h.8c0-.1.3-.7.3-.7,0,0,1.6.8,1.8,1s.5,0,.9.4.7.6.6,1c-.2.4.3.6.3.6h.5s-.3-.5-.2-.7v-.2l.4-.3s-1.4-1.3-1.5-1.3-.6,0-1.3-.4q-.7-.4-.9-.6c-.2-.2-.5-.4-.5-.4,0,0,0-.4.5-.3s.7.3,1,.7c.3.4.5.3.8.3s.7,0,.9.4c.3.4.4.7.8.9.4.2,1,.7,1.2.9.2.3.2-.5-.2-.8-.3-.3-.8-.3-.9-.7l-.2-.4.4-.5s1.2,1.3,1.4,1.5l.3.2.4-.4.6-.4c.6.8,1.1,1.5,1.6,2.3l-.8.2.3,1h-.4ZM79.6,48.4c.6.5,1.1,1.1,1.6,1.6l-.4.5s-.2.6-.3.6-1.4-1.1-1.7-1.5c-.3-.4-.4-.9-.4-.9h.5c0,.1.5-.6.5-.6l.2.2v.1ZM38.3,48.1c.1-.4,1.4-1.5,2-1.5,1.4-.1,2.2-.7,2.8-1.2.6-.5,0-.9,0-1.3s.5-.7.8-.9.5-.3.4-.6-.6.4-1,.7-.9,1.1-1.3,1.3c-.3.2-.4,0-1.1-.3s-.9-.3-1.3-.3-.5,0-.8-.1c-.7-.4.8-.5.2-1-.3-.2-.6-.3-.8-.5-.1-.2-1,0-1,0,0,0,.5-.4.9-.8.2-.2.2-.6,0-1.1,4.5-1.8,9.5-2.7,14.5-2.7s11.5,1.3,16.7,3.6c-.4.4-.8.8-1,.8-.3,0-.9-.3-.9-.3,0,0,.2-.3.1-.5-.1-.3-.6-.2-1-.2s-.7.2-1,0c-.4-.1-.8-.3-.9.2s.6.5,1,1.2,1.1.6,1.3.9.3,1.6.6,1.9c.3.3,1.6,1.1,1.8,1.2.3.2.5.2.5,0s-.1-.5,0-.6c.2,0,.8.2,1,.3s.8.8.8.8h.5s-.2-.8-.8-1.1c-.6-.3-.5-.5-.8-.7-.3-.3-1.1-.7-1.5-.8s-.4-.9-.9-1.1-1-.5-.9-.7.7,0,1,.3c.4.2,1.2,1,1.5,1.1s.7.7.8.4c.2-.3-.6-1-.4-1.1s.9.3.9.6-.3.7.2.9.1.1.5.2c.4.1.7.4.7.4h-.5c0,.1,1.4,1,1.4,1.1v.6s-.5-.4-.5-.2.2,1,.2,1c0,0-.5-.5-.8-.4l-.3.2s.6.4.3.5c-.3.2-.3-.3-.3.2v.6l-.2.2s.4.2.3.5v.3c-.1,0,.1.8-.2,1.1-.3.3-.7,0-.7,0l.4.5s-.8,0-.7.3c.2.3,1.1.3,1.1.3l.4.3h.5l.6.8s.4.5,0,.8-.7.1-.9.2c-.2,0-1,.3-1,.3,0,0-.2.4-.1.6,0,.2.8.7.9,1.2,0,.5,0,.7.2.9s.5.3.5.6v.3c.3.4.9-.1.9-.1,0,0,1,.5,1.1.9,0,.4.2.9-.3,1.4s-.6.5-.4,1.1c.2.7.4.7.5,1,0,.4,0,.6-.1.8-.2.2-1,.7-1,.9v.9l-.3.7s.1,1.6,0,1.8c-.1.2.1,2,.1,2l.3.6h.4c0,.1.1.8.1.8l-.2,1.2-.3,1.1.4,1,1.3.6.4.8.7.5v.9c.1,0,2.1,1.7,2.8,1.7s1.7-1.1,2-1.1,1.1.2,1.2,0,1.4-1.6,1.4-1.6l1.1-.3.7.7h1s.4,1,.2,2.2l-.2,1.2s1.2,1.5,1.1,1.7c0,.2.2,1.2.2,1.2v1.3l-.3.7.2,1-1,1.9-.3,1.3-.3.9-.3,2.6.2.2c-1.7,3-3.9,5.7-6.5,8.2-7.2,6.9-16.8,10.7-27,10.7s-19.8-3.8-27-10.7c-7.2-6.9-11.2-16.1-11.2-25.8s4-18.9,11.2-25.8c2-1.9,4.1-3.6,6.4-5l-.4,1.9s-.3.2-.9.6c-.7.4-1.1,1.6-1.1,1.6,0,0-1.2.7-1.7,1.1-.5.4-.6,1.9-.6,1.9,0,0-2.3,2.4-3.1,3.4s-1.6,3.4-1.8,3.8.4.6.4.6c0,0,0,.7-.2,1.1s-.5,2.1-.5,2.1c0,0,0,.7-.3,1.3-.1.3,0,1.5.2,2s0,1.5.2,1.4c.2,0,.3-.4.3-.8s-.1-1.3,0-1.8,0-1.8.1-2.1c0-.4.2-1,.4-.9s0,.7-.2.8,0,.7,0,.8.2,1.4.2,1.8.4,1.4.4,1.4c0,0,0,1.5-.1,1.8-.1.4-.3,1.1-.3,1.4s.2.3.6.7c.4.4.1.4.2.6,0,.2.3.2.5.3s.4.7.4.7l.3.3c.3.3.6.6.7.8l.2.2c.2.2,1.4.2,1.8.5.4.3.6,1,1,1.2s.6.2.8.2,1.1.6,1.4.9c.3.3.8,1.9,1,2.2.2.4.7.4.9.7.3.3.1.6.1.6l1,.3.5.7.6-.2v-.3c.1-.3-.1-.3.4-.5s.6.1.7.4c.2.3.3.9.3.9l.2.4s.2.5.1.9v1.6l-.9.4.2.6-.7.3-.6,1.4.4,1-.6.9s.1.2,0,.4c-.1.2.4.4.5.7.2.3.8,1,.9,1.4.2.4,1.4,2.4,1.4,2.4l.5.5.5,1.1s1.2,1.1,1.7,1.3c.5.2,2.2,1.3,2.2,1.3v1c.1,0,.2,1.7.2,1.7l.2,2.4.4,1.3.2.9s-.5,1.1-.6,1.7c0,.6,1,3.7,1.2,4.1l2.5,1.2,1.3.2h.9v-.3l-1.2-.3-.7-.5.4-.3v-.4l.5-.4-.9-.4s.6-.2.8-.5c.2-.3-.2-1.2-.2-1.2,0,0,.9.2,1.2,0s0-.7,0-.7l2.3-.3s0-.5-.1-.9-.4-.6-.8-.6-1.4-.5-1.3-.7.6-.2,1,.1,1.4.7,1.7.8c.3.1.7-.1,1.6-.5s.9-1,.9-1l.6-.5c.6-.5.6-.8.6-.8l.6-.4c.6-.4.1-1.1.1-1.1l3.4-1.4h.4c.4.1,0,0,.3-.2s.5-.5,1.1-1.6c.6-1.2,1-2.6,1-2.6v-1.2c-.1,0,.6-.5.7-.5s.6-1.2.6-1.2l1.2-1.3v-1l-.2-1.1h-1.3s-1-1.2-1.5-1.2-1.6.3-1.6.3c0,0-.3-.3-.5-.4-.2,0-.9.1-.9.1l-.8-.9s-.8-.6-1.3-.5c-.4,0-.4.5-.6.6s-1.5-1.4-1.5-1.4v-1c-.1,0-.3-1.2-.3-1.2l-2.2-1s-1.7.1-1.9,0c-.2,0-1.1-1.3-1.4-1.6-.3-.3-.7-.3-1-.4s-.2-.7-.3-.9c-.1-.2-.6-.4-1-.5s-2.1,0-2.4,0-.7-.3-1.2-.6c-.5-.4-1.3-.9-1.8-.9s-2.4,1-2.4,1l-1.3,1.6s-.2-.3-.4-.6-.6-.4-1.1-.4-.6.4-.6.4h-.8s-.3-.5-.4-.7c0-.2-.5-.7-.6-1,0-.3-.1-.8,0-1.1.1-.4.6-1.4.7-1.6,0-.2-1-.6-1.3-.6s-.3.2-.6.2-.6-.3-.8-.4c-.2-.2-.5.3-.7,0s.4-.4.7-.8c.4-.4-.1-.6-.1-1s0-.3.4-.6.4-.4.4-.7.4-.5.4-.5c0,0-.3-.2-.6-.3-.4,0-.7,0-1,.1s-.2.5-.4.8-.6,1.1-.9,1.2c-.4.2-.5-.5-.9-.7s0,0-.3-.1-1.1-1.1-1.2-1.8c0-.7,0-1.2.3-2s.5-1.9.8-2.4c.4-.5,1.6-1,2.4-1.1s1.3.4,1.5.3c.2,0,0,0,.3-.2s2.1.4,2.1.4c0,0,.2.3.2.4s.6,0,.7,0,.3.1.4.4c.1.3.2,1.4.1,1.8,0,.4.6.8.8.9.2,0,.3-.9.3-1.3s-.5-1.9-.5-2.2.4-.5.7-.8c.3-.4.9-.6,1.6-.9s1-.6,1.3-.8.1-1.4.5-1.5,0,0,.3,0,.6-1,1.3-1.4,1.4-.5,1.7-.6.4-.8.6-1.1c.3-.3.9-.5,1.6-.8.6-.3,1-.2,1,0s-.4.2-.6.3c-.3.1-.4.6-.2.6s.7-.2,1-.4c.3-.2,1.2-.4,1.4-.5.2-.1.3-.3.5-.5.2-.3,0-.4-.3-.4s-.4.5-.6.6c-.2,0-1.2,0-1.2-.4s0-1.1.3-1.3c.3-.2,1-.2,1.4-.3.4-.1,1.4-1.1,1.5-1,.2.1-.2.6-.3.8s-.3.7-.2,1,.5,0,.9,0,.9.5,1.3.5.3-.7.3-1.1-.5-.3-1.1-.4-.6-.4-.3-.8.3-.9.3-1.2-1.6-1-1.9-1.3c-.3-.3-.2-.8-.2-1.1s-.7-1.3-.9-1.3-.6,1.2-.9,1.1c-.3-.1-.4-.8-.8-1.4-.4-.6-1.9-.9-2-.8s0,.8,0,1-.7.5-.8.8c-.1.4.5.5.2,1-.2.3-1.1.7-1.4,1-.3.3-.3,1.7-.8,1.8-.5,0-1-.4-.9-.9,0-.5.9-.7.7-1.2s-.3-.3-.8-.5"/>
    </g>
    <path class="cls-21" d="M52.4,34c-23.4,0-42.5,18.2-42.5,40.6s19,40.6,42.5,40.6,42.5-18.2,42.5-40.6-19-40.6-42.5-40.6ZM60,110.2c-.4,0-.9.2-1.3.2,2.1-3.1,3.8-7.6,5-12.8h8.1c-3,5.7-7.1,10.1-11.8,12.5v.1ZM31.6,97.6h8.1c1.2,5,2.8,9.4,4.8,12.5-.7-.1-1.4-.3-2.1-.5-4.3-2.5-8-6.7-10.8-12ZM14.4,76.1h9.2c.1,6.8,1.4,13.2,3.7,18.8h-6.4c-3.8-5.4-6.1-11.8-6.4-18.8h-.1ZM66.1,73.3c-.1-6.5-.8-13-2-18.8h8.5c2.5,5.4,4,11.8,4.3,18.8h-10.8ZM54.7,110.8h-.8v-13.2h7c-1.6,6.4-3.8,11-6.1,13.2h-.1ZM42.7,97.6h8.3v13.2c-.8,0-1.5,0-2.3-.1-2.3-2.2-4.4-6.8-6-13.1ZM60.5,51.8h-6.7v-12.8c2.5,1.7,4.9,6.2,6.7,12.8ZM50.9,38.4v13.4h-8c2.1-7.8,5.1-12.7,8-13.4ZM50.9,54.6v18.8h-10.7c.1-7.1.9-13.5,2.1-18.8h8.7-.1ZM50.9,76.1v18.8h-8.9c-1.1-5.3-1.8-11.7-1.8-18.8h10.7ZM53.8,94.9v-18.8h9.4c0,7.1-.7,13.4-1.8,18.8h-7.6ZM53.8,73.3v-18.8h7.4c1.2,5.3,1.9,11.6,2.1,18.8h-9.5ZM63.5,51.8c-1.3-5-3-9.3-5.1-12.2,5.1,2,9.6,6.4,12.9,12.2h-7.8ZM45.1,39.6c-2.1,2.9-3.9,7.2-5.1,12.3h-7.7c3.3-5.9,7.8-10.2,12.9-12.3h-.1ZM39.3,54.6c-1.2,5.8-1.9,12.3-2,18.8h-10.8c.2-6.9,1.8-13.3,4.3-18.8h8.5ZM23.6,73.3h-9.2c.2-6.9,2.5-13.3,6.3-18.8h7c-2.4,5.5-3.8,11.9-4.1,18.8ZM26.5,76.1h10.8c0,6.4.7,12.9,1.8,18.8h-8.8c-2.3-5.5-3.7-11.9-3.8-18.8ZM64.3,94.9c1.1-5.8,1.7-12.3,1.8-18.8h10.8c-.1,6.9-1.5,13.3-3.8,18.8h-8.8ZM79.8,76.1h10.5c-.3,6.9-2.6,13.4-6.4,18.8h-7.7c2.2-5.6,3.6-11.9,3.7-18.8h-.1ZM79.8,73.3c-.2-6.8-1.7-13.2-4.1-18.8h8.3c3.8,5.4,6,11.8,6.3,18.8h-10.5ZM81.9,51.8h-7.5c-2.4-4.7-5.6-8.6-9.2-11.4,6.6,2.3,12.4,6.3,16.7,11.4ZM37,41.4c-3.1,2.7-5.8,6.3-8,10.4h-6.2c3.8-4.5,8.6-8,14.2-10.4ZM23,97.6h5.5c1.6,3.4,3.7,6.4,6,9-4.4-2.3-8.3-5.3-11.4-9h-.1ZM67.9,107.7c2.8-2.7,5.2-6.2,7.1-10.1h6.8c-3.7,4.3-8.5,7.8-13.9,10.1Z"/>
    <g class="cls-26">
      <g>
        <path class="cls-15" d="M13.4,122.2c-5.1-1-8.5-2.4-8.5-2.4l-9.5-2.9,6.6,12.8v.7s17.7,5.9,18.2,6c10.7,2.7,28.7,4.5,42.5,1.4,7.6-1.7,14-5.2,20.2-8.9,11.1-6.6,21.2-12.4,48.1-7.8l4,.7-.3-14.2-4.2-.7c-29.8-5.1-43,2.8-55.2,10-5.7,3.4-12,8.5-18.4,9.7-.8.1-.4,0-1.3,0,4.7-3.4,8.1-7.2,11.3-12.6,2.8-4.7,7-9.5,10.9-12.7,16.8-12.2,46.4-8.6,51.4-2l4.6-12.9-4.2-3.1c-.5-.2-13.5-3.9-28.1-3.6-13.5.2-23.7,5-32,11.3-7,4.5-13,17.5-24,26.8-10.9,9.3-32.1,4.5-32.1,4.5v-.1Z"/>
        <path class="cls-12" d="M131.9,111.3l-1.4-.2c-29.1-5-42.5,3-54.4,10.1-5.8,3.5-11.3,6.7-18.1,7.9-20.1,3.6-52.2-5.5-52.5-5.6l-1.4-.4.2,5.4,1.4.4c.3,0,7,2,16.3,3.8,10.9,2.1,26.4,4.1,38.2,2,7.4-1.3,13.1-4.7,19.2-8.4,11.4-6.7,24.2-14.4,51.8-9.7l1.4.2-.8-5.5h.1Z"/>
        <path class="cls-16" d="M127.9,87.1c-.5-.2-11.7-4.3-25.8-3.8-13,.4-31,5-42.4,24.5-9.3,15.7-23.6,19-34,19.1-11.3,0-20.5-3.7-20.6-3.7l-3.5-1.4,1,5.7.3.5c.4.2,6.4,2.1,12.6,3.3,4,.8,8,1.1,11.8,1.1,11.3,0,27-3.6,37.1-20.7,10.7-18.1,27.4-22.4,39.5-22.8,13.1-.4,23.9,3.5,24,3.5l1.4.5,1.1-5.1-2.4-.7h-.1Z"/>
      </g>
    </g>
    <g>
      <g>
        <circle class="cls-1" cx="63.2" cy="65.3" r="3.4"/>
        <path class="cls-25" d="M63.2,46.7c-10.3,0-18.6,8.4-18.6,18.6s14.9,27.2,17.3,28.2l2.2.9,1.7-1.7c6-6,16.1-17.6,16.1-27.5s-8.4-18.6-18.6-18.6l-.1.1Z"/>
      </g>
      <path class="cls-15" d="M63.2,50.2c-8.3,0-15.1,6.8-15.1,15.1s14.9,25.1,15.1,25c5.9-5.9,15.1-16.6,15.1-25s-6.8-15.1-15.1-15.1ZM63.2,72.3c-3.8,0-7-3.1-7-7s3.1-7,7-7,7,3.1,7,7-3.1,7-7,7Z"/>
    </g>
    <g class="cls-13">
      <text class="cls-14" transform="translate(20.6 43.8)"><tspan class="cls-27" x="0" y="0">G</tspan><tspan x="17.75" y="0">eo</tspan><tspan class="cls-24" x="46.26" y="0"> </tspan><tspan class="cls-22" x="50.46" y="0">T</tspan><tspan class="cls-23" x="62.51" y="0">o</tspan><tspan x="76.78" y="0">x</tspan></text>
      <text class="cls-2" transform="translate(20.6 43.8)"><tspan class="cls-27" x="0" y="0">G</tspan><tspan x="17.75" y="0">eo</tspan><tspan class="cls-24" x="46.26" y="0"> </tspan><tspan class="cls-22" x="50.46" y="0">T</tspan><tspan class="cls-23" x="62.51" y="0">o</tspan><tspan x="76.78" y="0">x</tspan></text>
    </g>
  </g>
</svg>